<?xml version="1.0" standalone="no"?>
<!DOCTYPE svg PUBLIC "-//W3C//DTD SVG 20010904//EN"
 "http://www.w3.org/TR/2001/REC-SVG-20010904/DTD/svg10.dtd">
<svg version="1.0" xmlns="http://www.w3.org/2000/svg"
 width="512.000000pt" height="512.000000pt" viewBox="0 0 512.000000 512.000000"
 preserveAspectRatio="xMidYMid meet">
<metadata>
Created by potrace 1.15, written by Peter Selinger 2001-2017
</metadata>
<g transform="translate(0.000000,512.000000) scale(0.100000,-0.100000)"
fill="#000000" stroke="none">
<path d="M4759 5064 c-14 -7 -37 -24 -52 -38 -14 -13 -29 -21 -33 -17 -4 3 -4
1 0 -6 4 -7 1 -23 -7 -35 -36 -59 -12 -161 51 -217 15 -13 20 -20 12 -15 -8 4
-12 3 -8 -1 16 -18 130 -25 180 -12 34 9 85 60 103 103 8 21 12 54 9 86 -4 59
-38 110 -94 142 -40 24 -125 29 -161 10z"/>
<path d="M4256 4883 c-60 -13 -111 -25 -113 -26 -1 -2 5 -41 16 -88 36 -169
142 -326 281 -420 22 -15 37 -29 35 -33 -3 -3 -3 -4 1 -2 3 2 33 -10 67 -26
34 -17 67 -31 72 -33 6 -1 17 -5 25 -8 15 -5 62 -17 90 -23 8 -1 41 -5 73 -8
54 -5 57 -4 58 17 1 12 3 31 5 42 27 166 27 175 7 176 -10 0 -27 2 -38 4 -11
2 -31 6 -45 8 -79 14 -247 108 -233 130 3 6 2 7 -4 4 -15 -9 -123 115 -123
142 0 6 -9 26 -20 46 -11 19 -23 53 -26 75 -4 22 -9 42 -13 44 -3 2 -55 -7
-115 -21z"/>
<path d="M3725 4771 c-76 -17 -119 -31 -118 -39 2 -7 5 -36 7 -64 5 -64 16
-120 26 -133 4 -5 11 -25 15 -43 3 -18 13 -45 20 -60 7 -15 23 -47 34 -72 12
-25 30 -58 41 -75 11 -16 23 -37 27 -45 4 -8 12 -20 17 -27 33 -37 36 -44 30
-56 -4 -6 -4 -9 0 -5 5 4 29 -16 55 -44 25 -28 63 -67 83 -86 21 -19 35 -39
32 -44 -3 -5 -2 -7 3 -6 15 4 54 -23 47 -34 -4 -6 -3 -8 4 -4 5 3 23 -5 39
-18 26 -22 126 -79 201 -116 18 -9 29 -20 25 -25 -4 -4 -2 -5 5 -1 7 5 25 3
40 -2 15 -6 36 -13 47 -18 11 -4 25 -8 30 -9 6 -2 28 -8 50 -13 90 -25 284
-36 286 -17 0 6 2 19 5 30 2 11 6 38 9 60 3 22 8 47 10 55 2 8 7 34 10 57 2
23 6 48 7 55 2 8 -5 12 -17 10 -38 -5 -160 -4 -195 3 -19 4 -44 8 -55 10 -39
7 -65 14 -78 22 -6 4 -18 8 -26 10 -24 3 -157 72 -171 88 -7 8 -19 15 -26 15
-8 0 -14 5 -14 10 0 6 -8 13 -17 17 -17 6 -140 126 -173 169 -37 47 -100 160
-100 179 0 8 -4 15 -10 15 -5 0 -10 6 -10 14 0 7 -9 40 -19 73 -11 33 -21 89
-24 124 -3 45 -8 64 -18 66 -8 1 -68 -11 -134 -26z"/>
<path d="M3270 4675 c-30 -7 -81 -19 -113 -25 l-58 -12 6 -66 c8 -82 44 -263
56 -277 4 -6 11 -30 15 -53 4 -23 10 -42 15 -42 5 0 9 -8 9 -17 0 -25 92 -203
148 -287 53 -80 120 -165 169 -214 18 -19 30 -39 26 -45 -3 -5 -2 -7 4 -4 12
7 99 -70 96 -84 -2 -5 0 -8 5 -7 15 4 52 -23 46 -34 -4 -6 -3 -8 3 -5 11 7
109 -60 106 -72 -1 -4 3 -8 10 -8 7 0 48 -20 92 -44 96 -54 266 -124 308 -128
5 -1 5 -5 2 -11 -3 -5 0 -7 8 -4 7 2 34 0 58 -6 24 -6 52 -11 62 -11 9 0 16
-3 13 -7 -2 -4 10 -7 27 -8 18 0 57 -4 87 -8 30 -4 91 -8 135 -8 71 -1 80 1
77 16 -2 10 1 15 6 12 6 -3 8 2 6 11 -3 10 4 62 14 115 18 94 16 128 -7 114
-12 -8 -148 -9 -201 -1 -83 11 -110 17 -105 24 2 5 -6 7 -18 6 -13 -2 -41 4
-62 11 -22 8 -47 16 -55 18 -107 26 -429 221 -413 250 3 6 3 8 -1 4 -9 -8 -16
-2 -87 64 -30 29 -47 53 -43 59 4 7 3 9 -4 6 -5 -4 -30 17 -53 45 -24 29 -46
55 -49 58 -35 31 -161 266 -176 325 -4 17 -10 35 -14 40 -14 18 -50 216 -50
271 0 62 -1 62 -100 39z"/>
<path d="M2408 3870 c-23 -32 -63 -91 -87 -130 -24 -39 -48 -67 -54 -63 -6 3
-7 1 -3 -5 3 -6 -12 -39 -34 -73 l-41 -63 -150 -2 c-131 -2 -151 0 -157 15 -3
9 -21 36 -39 59 -18 24 -30 49 -27 54 4 6 3 8 -2 5 -5 -3 -33 29 -61 72 -29
43 -66 94 -82 115 -16 20 -32 42 -34 49 -6 17 -73 -2 -214 -64 -65 -28 -158
-68 -208 -89 -49 -21 -117 -49 -150 -64 l-60 -26 2 -47 c1 -27 16 -101 33
-166 52 -200 58 -314 16 -290 -6 3 -9 3 -6 0 3 -3 -30 -43 -73 -89 -92 -97
-60 -94 -338 -37 -108 21 -203 37 -212 33 -8 -3 -17 -13 -20 -22 -3 -9 -15
-42 -28 -72 -12 -30 -39 -98 -60 -150 -20 -52 -60 -151 -88 -219 -28 -68 -51
-133 -51 -146 0 -15 16 -33 57 -60 32 -21 84 -55 115 -76 31 -22 59 -39 62
-39 6 0 108 -71 116 -80 3 -4 13 -9 23 -13 15 -6 17 -21 17 -120 0 -63 3 -128
6 -145 6 -28 3 -33 -22 -44 -16 -7 -33 -18 -39 -24 -24 -27 -178 -124 -187
-118 -7 4 -8 2 -4 -4 4 -6 -4 -16 -16 -23 -13 -6 -45 -28 -71 -48 -44 -32 -48
-39 -44 -67 3 -18 24 -71 46 -118 23 -48 41 -92 41 -97 0 -5 18 -45 40 -89 22
-44 40 -85 40 -93 0 -7 20 -54 45 -105 34 -69 50 -92 64 -92 11 0 84 16 162
35 79 19 157 35 174 35 16 0 45 4 64 10 19 5 32 8 30 6 -8 -6 -296 -262 -331
-295 -46 -42 -54 -65 -34 -96 25 -38 78 -34 173 15 43 22 83 40 89 40 7 0 37
13 67 29 30 16 72 34 93 41 22 7 68 28 104 46 35 18 65 32 66 31 2 -1 -8 -47
-22 -102 -13 -55 -24 -116 -24 -135 0 -19 -9 -74 -20 -123 -10 -48 -17 -94
-14 -101 6 -15 127 -74 178 -86 17 -5 67 -24 111 -43 44 -18 118 -49 165 -67
47 -18 90 -37 95 -41 6 -3 24 -10 42 -13 24 -6 36 -3 48 11 20 22 185 274 185
282 0 3 15 26 33 51 l33 44 145 2 144 2 25 -36 c14 -20 27 -41 29 -47 2 -5 19
-29 38 -52 20 -26 31 -48 27 -55 -4 -7 -4 -10 1 -6 4 4 19 -10 34 -31 79 -115
115 -161 125 -161 6 0 54 18 106 41 52 22 138 59 190 81 52 22 133 58 180 79
47 21 95 39 107 39 34 0 37 35 14 127 -12 45 -21 92 -21 105 0 13 -13 76 -28
139 l-29 116 102 106 101 105 125 -29 c68 -15 142 -29 164 -29 22 0 67 -6 100
-13 33 -7 67 -11 76 -9 10 2 24 22 32 45 19 54 69 178 117 292 43 101 99 241
107 267 5 17 -2 22 -260 187 -148 94 -136 74 -138 236 l-2 140 69 48 c151 105
186 127 196 121 7 -4 8 -2 4 4 -4 6 5 19 21 28 73 45 93 60 96 74 1 8 -26 80
-61 160 -35 80 -67 156 -72 170 -4 14 -23 59 -43 100 -20 41 -43 96 -52 123
-22 62 -38 70 -106 51 -30 -8 -87 -19 -127 -25 -40 -5 -105 -19 -144 -29 l-71
-18 39 38 c21 21 43 36 48 32 5 -3 6 0 2 6 -4 6 8 26 26 44 18 19 58 61 90 95
31 34 59 60 62 57 3 -2 4 -1 1 3 -3 3 16 28 41 55 52 56 56 89 12 121 l-27 20
-183 -91 c-101 -51 -188 -92 -193 -92 -6 0 -27 -11 -48 -25 -20 -14 -58 -35
-83 -46 l-47 -19 7 52 c4 28 20 108 36 177 16 69 32 151 36 181 6 53 5 56 -20
68 -15 7 -33 12 -40 12 -8 0 -38 11 -68 25 -29 13 -83 35 -118 49 -85 31 -208
80 -295 117 -38 16 -73 29 -77 29 -3 0 -26 -27 -50 -60z m207 -49 c72 -28 153
-61 180 -73 28 -11 84 -33 125 -48 119 -44 113 -39 106 -74 -4 -17 -14 -74
-22 -126 -15 -94 -41 -229 -50 -262 -3 -10 -127 -77 -317 -171 l-312 -154 -75
13 c-92 16 -267 18 -362 3 -121 -19 -260 -79 -359 -155 -135 -104 -218 -205
-283 -345 -23 -50 -43 -76 -74 -99 -35 -25 -42 -36 -42 -64 0 -18 9 -45 20
-59 18 -23 20 -35 14 -109 -9 -126 29 -326 82 -430 9 -18 32 -59 52 -91 19
-31 33 -59 31 -61 -2 -2 -94 -86 -205 -187 l-201 -184 -139 -32 c-131 -31
-255 -54 -298 -57 -15 -1 -26 14 -47 69 -15 39 -36 86 -48 105 -11 19 -21 42
-21 52 0 9 -18 56 -41 105 -22 48 -51 112 -65 141 -13 29 -24 58 -24 65 0 12
109 92 297 217 l82 55 -1 168 0 167 -67 44 c-210 138 -302 196 -310 196 -21 0
-20 22 5 77 14 32 42 99 61 148 19 50 46 117 58 150 60 154 84 200 102 198 68
-9 236 -38 333 -58 l115 -24 45 52 c24 29 77 84 117 122 l72 70 -28 115 c-16
63 -37 156 -46 205 -10 50 -20 99 -22 110 -4 17 7 26 64 52 124 58 250 113
257 113 4 0 54 20 110 45 57 25 110 45 117 45 13 0 35 -30 109 -140 38 -57
131 -192 148 -215 15 -20 25 -21 184 -19 l169 2 57 89 c31 48 65 99 75 113 33
47 89 135 104 163 8 16 20 27 26 24 7 -3 71 -28 142 -56z m963 -391 c3 -17
-59 -85 -698 -770 -80 -85 -205 -219 -278 -298 -73 -78 -131 -146 -127 -151 5
-9 355 -233 522 -336 79 -48 91 -61 72 -80 -8 -8 -210 -100 -449 -205 -239
-106 -448 -198 -465 -205 -16 -8 -109 -48 -205 -91 -96 -42 -195 -86 -220 -97
-25 -11 -137 -60 -250 -110 -113 -49 -338 -148 -500 -219 -403 -177 -387 -171
-405 -165 -8 4 -15 13 -15 21 0 7 66 74 147 148 266 241 355 322 468 423 414
372 616 558 613 565 -2 5 -129 89 -283 186 -154 97 -288 181 -297 188 -10 6
-18 19 -18 29 0 13 273 153 1173 602 644 321 1181 583 1192 582 11 -1 21 -9
23 -17z m85 -408 c11 -18 32 -65 47 -105 15 -40 60 -145 99 -235 39 -90 71
-168 71 -173 0 -8 -124 -101 -193 -144 -18 -11 -66 -43 -108 -72 l-76 -52 1
-169 1 -169 137 -89 c76 -49 150 -96 165 -104 16 -8 42 -25 59 -37 l32 -23
-60 -152 c-33 -84 -75 -187 -93 -228 -19 -41 -38 -93 -44 -115 -20 -74 -14
-73 -168 -42 -76 15 -180 34 -231 43 l-92 15 -115 -115 -115 -116 11 -73 c6
-39 23 -124 39 -187 16 -63 31 -135 35 -160 6 -45 6 -46 -30 -63 -19 -9 -41
-17 -47 -17 -6 0 -52 -18 -102 -41 -50 -22 -120 -53 -156 -69 -36 -16 -94 -41
-130 -55 -36 -14 -70 -28 -76 -31 -7 -3 -34 27 -60 66 -27 40 -68 100 -92 133
-24 34 -50 73 -59 87 -10 14 -29 41 -44 60 l-27 35 -166 -3 -166 -3 -66 -102
c-37 -56 -79 -120 -94 -142 -15 -22 -35 -53 -43 -70 -9 -16 -25 -40 -36 -52
l-19 -23 -113 44 c-233 90 -255 99 -319 126 -36 15 -81 33 -101 39 -35 11 -36
13 -29 49 6 29 50 252 75 377 3 16 44 38 172 94 92 40 243 107 334 148 l167
74 58 -10 c74 -14 253 -14 330 0 192 34 365 131 500 280 54 59 114 142 114
156 0 5 19 20 41 33 l42 23 -6 -29 -6 -29 13 29 c10 21 32 36 92 63 105 46
114 55 114 114 0 46 -3 51 -42 80 -24 17 -62 40 -86 51 -49 24 -50 24 -55 178
-6 133 -22 200 -78 319 l-40 85 74 75 c41 42 127 135 192 206 150 165 167 180
208 183 19 1 94 17 168 35 74 19 143 33 153 33 11 -1 28 -15 39 -34z m-1447
-133 c32 -6 65 -13 72 -15 12 -4 -118 -73 -248 -132 -25 -12 -65 -32 -90 -45
-25 -13 -61 -31 -80 -40 -19 -9 -46 -23 -60 -30 -14 -8 -74 -38 -135 -67 -60
-29 -117 -57 -125 -61 -8 -5 -77 -40 -153 -78 -154 -78 -151 -79 -85 44 48 88
210 259 294 312 69 42 173 83 264 104 87 20 259 24 346 8z m630 -505 c46 -116
55 -158 63 -300 l6 -120 -40 26 c-84 56 -185 120 -189 120 -2 0 -33 19 -69 43
-35 23 -73 47 -83 53 -21 13 -33 -3 160 207 104 112 94 114 152 -29z m-1532
-258 c21 -14 43 -26 48 -26 5 0 6 -5 2 -12 -5 -7 -3 -8 5 -3 7 4 22 -1 34 -13
12 -11 33 -25 47 -32 14 -7 48 -27 75 -45 28 -18 87 -57 133 -86 77 -49 81
-53 66 -70 -9 -10 -21 -17 -28 -16 -6 1 -10 -3 -9 -10 2 -6 -12 -24 -30 -39
-17 -14 -72 -64 -122 -109 -49 -46 -104 -95 -121 -109 l-32 -26 -24 33 c-13
17 -43 70 -66 117 -57 115 -84 248 -81 396 l2 112 31 -18 c17 -9 49 -29 70
-44z m1489 -498 c-44 -73 -91 -132 -140 -179 -84 -80 -123 -110 -135 -103 -6
4 -8 2 -5 -3 11 -17 -146 -91 -241 -115 -93 -23 -300 -31 -376 -15 l-40 9 65
27 c112 48 142 61 225 102 45 21 87 39 93 39 7 0 49 18 93 40 45 22 88 40 94
40 7 0 28 9 46 19 18 11 82 40 141 66 59 25 125 54 145 65 43 23 46 24 35 8z"/>
</g>
</svg>
